<svg width="52" height="39" viewBox="0 0 52 39" fill="none" xmlns="http://www.w3.org/2000/svg">
<mask id="path-1-outside-1_300_907" maskUnits="userSpaceOnUse" x="0.405273" y="0.445312" width="51" height="39" fill="black">
<rect fill="white" x="0.405273" y="0.445312" width="51" height="39"/>
<path d="M38.7936 6.30194C38.0806 6.30876 37.3696 6.36812 36.6664 6.48101C35.9632 6.5939 35.2706 6.76615 34.5947 6.98512C33.2437 7.42792 31.9569 8.07314 30.815 8.91787C29.6663 9.75676 28.6518 10.763 27.6549 11.779C26.6599 12.798 25.6668 13.7799 24.5843 14.719C26.7698 16.0416 29.2383 16.8036 31.775 17.079C34.3097 17.3622 36.9027 17.0888 39.3256 16.3034C41.7494 15.519 44.003 14.214 45.8821 12.4982C47.7613 10.7835 49.3097 8.85559 50.2688 6.50145C48.5345 4.88012 46.4696 3.61594 44.2355 2.8189C42.0013 2.01894 39.5989 1.70752 37.2364 1.87005C36.0536 1.95277 34.8835 2.17563 33.7465 2.50846C32.6115 2.84907 31.5124 3.30744 30.4755 3.88065C29.961 4.17163 29.4582 4.48306 28.9777 4.83146C28.4982 5.17986 28.0303 5.5448 27.581 5.93505C26.6793 6.71068 25.8312 7.55249 24.9918 8.40597C24.1514 9.25849 23.3169 10.1237 22.4396 10.9509C22.0009 11.3645 21.5525 11.7693 21.0857 12.1537C20.6198 12.5401 20.1393 12.9099 19.6335 13.2466C19.508 13.3322 19.3826 13.4179 19.2522 13.4957C19.1229 13.5755 18.9955 13.6583 18.8642 13.7342L18.4664 13.958C18.335 14.0349 18.196 14.0972 18.0608 14.1672L17.8565 14.2704C17.7884 14.3035 17.7174 14.3327 17.6484 14.3638C17.5083 14.4242 17.3712 14.4894 17.2301 14.5468C16.9451 14.6558 16.6621 14.7697 16.3703 14.8563C16.0824 14.9565 15.7838 15.0237 15.4901 15.1035L15.0417 15.1949L14.817 15.2397L14.5904 15.2738C13.9873 15.3643 13.3775 15.4061 12.7677 15.4003C11.5489 15.3886 10.3341 15.1881 9.17472 14.8154C8.59503 14.6285 8.02992 14.3979 7.48525 14.1264C6.94154 13.8519 6.41729 13.5395 5.91832 13.1921C3.9283 11.7907 2.35068 9.80931 1.45585 7.54276L1.40527 7.41332L1.51713 7.33255C3.1891 6.12288 5.19954 5.4251 7.24111 5.24409C9.2856 5.06307 11.37 5.40564 13.254 6.20754C14.1955 6.61044 15.0864 7.12721 15.9151 7.72669C16.7419 8.32909 17.4976 9.02395 18.1882 9.77525C19.5625 11.2866 20.6558 13.0364 21.4883 14.8923C21.9075 15.8197 22.2587 16.7773 22.5485 17.7525C22.6973 18.2391 22.8209 18.7325 22.9385 19.2269C23.0475 19.7232 23.1496 20.2224 23.2264 20.7246C23.3792 21.7289 23.4978 22.7362 23.5863 23.7463C23.6369 24.2504 23.67 24.7565 23.7108 25.2616C23.7429 25.7676 23.7818 26.2727 23.8071 26.7788C23.9209 28.802 23.9851 30.8272 24.0055 32.8534C24.0289 34.8786 24.0065 36.9048 23.9287 38.929C23.955 37.9169 23.9657 36.9038 23.9657 35.8917C23.9618 34.8796 23.953 33.8665 23.9306 32.8544C23.8898 30.8302 23.8061 28.8069 23.6729 26.7866C23.6427 26.2815 23.599 25.7774 23.562 25.2723C23.5153 24.7682 23.4784 24.2641 23.4229 23.7609C23.3247 22.7547 23.1963 21.7503 23.0348 20.7548C22.8675 19.7602 22.6341 18.7772 22.3404 17.8128C22.0476 16.8484 21.6945 15.9024 21.2744 14.9867C20.4408 13.1551 19.3495 11.4336 17.9888 9.95529C17.305 9.22053 16.56 8.54222 15.7459 7.95733C14.9308 7.37439 14.0574 6.87515 13.1353 6.48685C11.2902 5.71511 9.26031 5.39493 7.27127 5.58276C5.28708 5.77156 3.40016 6.31217 1.78849 7.48486C2.66095 9.68134 4.1987 11.5309 6.13133 12.8865C6.61668 13.2233 7.12537 13.5249 7.65254 13.7897C8.18068 14.0514 8.72925 14.2743 9.29144 14.4543C10.4158 14.8134 11.5927 15.0052 12.7715 15.0139C13.361 15.0188 13.9504 14.9769 14.532 14.8884L14.7499 14.8553L14.9668 14.8115L15.3996 14.722C15.6836 14.6441 15.9715 14.5799 16.2497 14.4816C16.5318 14.3969 16.8051 14.286 17.0803 14.1809C17.2165 14.1254 17.3498 14.0621 17.485 14.0028C17.5521 13.9726 17.6202 13.9444 17.6863 13.9113L17.8837 13.8111C18.0141 13.7429 18.1493 13.6816 18.2767 13.6067L18.6619 13.3887C18.7893 13.3138 18.9128 13.233 19.0392 13.1551C19.1657 13.0792 19.2882 12.9955 19.4098 12.9118C19.902 12.5829 20.3718 12.2199 20.8279 11.8404C21.286 11.4628 21.7276 11.0618 22.1604 10.6521C23.028 9.83364 23.8548 8.9675 24.699 8.11402C25.5423 7.25956 26.4002 6.41191 27.3183 5.62558C27.7755 5.23046 28.254 4.85773 28.7452 4.50252C29.2364 4.14731 29.7548 3.82713 30.2839 3.5303C31.347 2.94542 32.4733 2.47829 33.6356 2.13183C34.7999 1.79316 35.9982 1.56836 37.2081 1.48564C39.6261 1.32409 42.0782 1.64719 44.36 2.46856C46.6408 3.28701 48.7466 4.58232 50.5129 6.24063L50.6033 6.3253L50.5567 6.43819C50.3057 7.0367 50.0275 7.62353 49.7173 8.19382C49.4002 8.76022 49.0588 9.31201 48.6843 9.8424C48.305 10.3689 47.9033 10.8788 47.4724 11.3625C47.0377 11.8433 46.5834 12.3065 46.102 12.7406C44.1771 14.4777 41.8778 15.7895 39.4121 16.572C36.9465 17.3544 34.3165 17.6152 31.7487 17.3136C29.181 17.0187 26.6832 16.1457 24.4899 14.7842L24.3839 14.719L24.4782 14.6392C25.5598 13.7186 26.549 12.6919 27.5557 11.6808C28.5633 10.6735 29.5924 9.67209 30.7576 8.83807C31.917 7.99918 33.2164 7.35882 34.5791 6.93257C35.2609 6.72139 35.9583 6.55789 36.6635 6.45376C37.3677 6.3506 38.0816 6.3 38.7936 6.30194Z"/>
</mask>
<path d="M38.7936 6.30194C38.0806 6.30876 37.3696 6.36812 36.6664 6.48101C35.9632 6.5939 35.2706 6.76615 34.5947 6.98512C33.2437 7.42792 31.9569 8.07314 30.815 8.91787C29.6663 9.75676 28.6518 10.763 27.6549 11.779C26.6599 12.798 25.6668 13.7799 24.5843 14.719C26.7698 16.0416 29.2383 16.8036 31.775 17.079C34.3097 17.3622 36.9027 17.0888 39.3256 16.3034C41.7494 15.519 44.003 14.214 45.8821 12.4982C47.7613 10.7835 49.3097 8.85559 50.2688 6.50145C48.5345 4.88012 46.4696 3.61594 44.2355 2.8189C42.0013 2.01894 39.5989 1.70752 37.2364 1.87005C36.0536 1.95277 34.8835 2.17563 33.7465 2.50846C32.6115 2.84907 31.5124 3.30744 30.4755 3.88065C29.961 4.17163 29.4582 4.48306 28.9777 4.83146C28.4982 5.17986 28.0303 5.5448 27.581 5.93505C26.6793 6.71068 25.8312 7.55249 24.9918 8.40597C24.1514 9.25849 23.3169 10.1237 22.4396 10.9509C22.0009 11.3645 21.5525 11.7693 21.0857 12.1537C20.6198 12.5401 20.1393 12.9099 19.6335 13.2466C19.508 13.3322 19.3826 13.4179 19.2522 13.4957C19.1229 13.5755 18.9955 13.6583 18.8642 13.7342L18.4664 13.958C18.335 14.0349 18.196 14.0972 18.0608 14.1672L17.8565 14.2704C17.7884 14.3035 17.7174 14.3327 17.6484 14.3638C17.5083 14.4242 17.3712 14.4894 17.2301 14.5468C16.9451 14.6558 16.6621 14.7697 16.3703 14.8563C16.0824 14.9565 15.7838 15.0237 15.4901 15.1035L15.0417 15.1949L14.817 15.2397L14.5904 15.2738C13.9873 15.3643 13.3775 15.4061 12.7677 15.4003C11.5489 15.3886 10.3341 15.1881 9.17472 14.8154C8.59503 14.6285 8.02992 14.3979 7.48525 14.1264C6.94154 13.8519 6.41729 13.5395 5.91832 13.1921C3.9283 11.7907 2.35068 9.80931 1.45585 7.54276L1.40527 7.41332L1.51713 7.33255C3.1891 6.12288 5.19954 5.4251 7.24111 5.24409C9.2856 5.06307 11.37 5.40564 13.254 6.20754C14.1955 6.61044 15.0864 7.12721 15.9151 7.72669C16.7419 8.32909 17.4976 9.02395 18.1882 9.77525C19.5625 11.2866 20.6558 13.0364 21.4883 14.8923C21.9075 15.8197 22.2587 16.7773 22.5485 17.7525C22.6973 18.2391 22.8209 18.7325 22.9385 19.2269C23.0475 19.7232 23.1496 20.2224 23.2264 20.7246C23.3792 21.7289 23.4978 22.7362 23.5863 23.7463C23.6369 24.2504 23.67 24.7565 23.7108 25.2616C23.7429 25.7676 23.7818 26.2727 23.8071 26.7788C23.9209 28.802 23.9851 30.8272 24.0055 32.8534C24.0289 34.8786 24.0065 36.9048 23.9287 38.929C23.955 37.9169 23.9657 36.9038 23.9657 35.8917C23.9618 34.8796 23.953 33.8665 23.9306 32.8544C23.8898 30.8302 23.8061 28.8069 23.6729 26.7866C23.6427 26.2815 23.599 25.7774 23.562 25.2723C23.5153 24.7682 23.4784 24.2641 23.4229 23.7609C23.3247 22.7547 23.1963 21.7503 23.0348 20.7548C22.8675 19.7602 22.6341 18.7772 22.3404 17.8128C22.0476 16.8484 21.6945 15.9024 21.2744 14.9867C20.4408 13.1551 19.3495 11.4336 17.9888 9.95529C17.305 9.22053 16.56 8.54222 15.7459 7.95733C14.9308 7.37439 14.0574 6.87515 13.1353 6.48685C11.2902 5.71511 9.26031 5.39493 7.27127 5.58276C5.28708 5.77156 3.40016 6.31217 1.78849 7.48486C2.66095 9.68134 4.1987 11.5309 6.13133 12.8865C6.61668 13.2233 7.12537 13.5249 7.65254 13.7897C8.18068 14.0514 8.72925 14.2743 9.29144 14.4543C10.4158 14.8134 11.5927 15.0052 12.7715 15.0139C13.361 15.0188 13.9504 14.9769 14.532 14.8884L14.7499 14.8553L14.9668 14.8115L15.3996 14.722C15.6836 14.6441 15.9715 14.5799 16.2497 14.4816C16.5318 14.3969 16.8051 14.286 17.0803 14.1809C17.2165 14.1254 17.3498 14.0621 17.485 14.0028C17.5521 13.9726 17.6202 13.9444 17.6863 13.9113L17.8837 13.8111C18.0141 13.7429 18.1493 13.6816 18.2767 13.6067L18.6619 13.3887C18.7893 13.3138 18.9128 13.233 19.0392 13.1551C19.1657 13.0792 19.2882 12.9955 19.4098 12.9118C19.902 12.5829 20.3718 12.2199 20.8279 11.8404C21.286 11.4628 21.7276 11.0618 22.1604 10.6521C23.028 9.83364 23.8548 8.9675 24.699 8.11402C25.5423 7.25956 26.4002 6.41191 27.3183 5.62558C27.7755 5.23046 28.254 4.85773 28.7452 4.50252C29.2364 4.14731 29.7548 3.82713 30.2839 3.5303C31.347 2.94542 32.4733 2.47829 33.6356 2.13183C34.7999 1.79316 35.9982 1.56836 37.2081 1.48564C39.6261 1.32409 42.0782 1.64719 44.36 2.46856C46.6408 3.28701 48.7466 4.58232 50.5129 6.24063L50.6033 6.3253L50.5567 6.43819C50.3057 7.0367 50.0275 7.62353 49.7173 8.19382C49.4002 8.76022 49.0588 9.31201 48.6843 9.8424C48.305 10.3689 47.9033 10.8788 47.4724 11.3625C47.0377 11.8433 46.5834 12.3065 46.102 12.7406C44.1771 14.4777 41.8778 15.7895 39.4121 16.572C36.9465 17.3544 34.3165 17.6152 31.7487 17.3136C29.181 17.0187 26.6832 16.1457 24.4899 14.7842L24.3839 14.719L24.4782 14.6392C25.5598 13.7186 26.549 12.6919 27.5557 11.6808C28.5633 10.6735 29.5924 9.67209 30.7576 8.83807C31.917 7.99918 33.2164 7.35882 34.5791 6.93257C35.2609 6.72139 35.9583 6.55789 36.6635 6.45376C37.3677 6.3506 38.0816 6.3 38.7936 6.30194Z" fill="white"/>
<path d="M38.7936 6.30194C38.0806 6.30876 37.3696 6.36812 36.6664 6.48101C35.9632 6.5939 35.2706 6.76615 34.5947 6.98512C33.2437 7.42792 31.9569 8.07314 30.815 8.91787C29.6663 9.75676 28.6518 10.763 27.6549 11.779C26.6599 12.798 25.6668 13.7799 24.5843 14.719C26.7698 16.0416 29.2383 16.8036 31.775 17.079C34.3097 17.3622 36.9027 17.0888 39.3256 16.3034C41.7494 15.519 44.003 14.214 45.8821 12.4982C47.7613 10.7835 49.3097 8.85559 50.2688 6.50145C48.5345 4.88012 46.4696 3.61594 44.2355 2.8189C42.0013 2.01894 39.5989 1.70752 37.2364 1.87005C36.0536 1.95277 34.8835 2.17563 33.7465 2.50846C32.6115 2.84907 31.5124 3.30744 30.4755 3.88065C29.961 4.17163 29.4582 4.48306 28.9777 4.83146C28.4982 5.17986 28.0303 5.5448 27.581 5.93505C26.6793 6.71068 25.8312 7.55249 24.9918 8.40597C24.1514 9.25849 23.3169 10.1237 22.4396 10.9509C22.0009 11.3645 21.5525 11.7693 21.0857 12.1537C20.6198 12.5401 20.1393 12.9099 19.6335 13.2466C19.508 13.3322 19.3826 13.4179 19.2522 13.4957C19.1229 13.5755 18.9955 13.6583 18.8642 13.7342L18.4664 13.958C18.335 14.0349 18.196 14.0972 18.0608 14.1672L17.8565 14.2704C17.7884 14.3035 17.7174 14.3327 17.6484 14.3638C17.5083 14.4242 17.3712 14.4894 17.2301 14.5468C16.9451 14.6558 16.6621 14.7697 16.3703 14.8563C16.0824 14.9565 15.7838 15.0237 15.4901 15.1035L15.0417 15.1949L14.817 15.2397L14.5904 15.2738C13.9873 15.3643 13.3775 15.4061 12.7677 15.4003C11.5489 15.3886 10.3341 15.1881 9.17472 14.8154C8.59503 14.6285 8.02992 14.3979 7.48525 14.1264C6.94154 13.8519 6.41729 13.5395 5.91832 13.1921C3.9283 11.7907 2.35068 9.80931 1.45585 7.54276L1.40527 7.41332L1.51713 7.33255C3.1891 6.12288 5.19954 5.4251 7.24111 5.24409C9.2856 5.06307 11.37 5.40564 13.254 6.20754C14.1955 6.61044 15.0864 7.12721 15.9151 7.72669C16.7419 8.32909 17.4976 9.02395 18.1882 9.77525C19.5625 11.2866 20.6558 13.0364 21.4883 14.8923C21.9075 15.8197 22.2587 16.7773 22.5485 17.7525C22.6973 18.2391 22.8209 18.7325 22.9385 19.2269C23.0475 19.7232 23.1496 20.2224 23.2264 20.7246C23.3792 21.7289 23.4978 22.7362 23.5863 23.7463C23.6369 24.2504 23.67 24.7565 23.7108 25.2616C23.7429 25.7676 23.7818 26.2727 23.8071 26.7788C23.9209 28.802 23.9851 30.8272 24.0055 32.8534C24.0289 34.8786 24.0065 36.9048 23.9287 38.929C23.955 37.9169 23.9657 36.9038 23.9657 35.8917C23.9618 34.8796 23.953 33.8665 23.9306 32.8544C23.8898 30.8302 23.8061 28.8069 23.6729 26.7866C23.6427 26.2815 23.599 25.7774 23.562 25.2723C23.5153 24.7682 23.4784 24.2641 23.4229 23.7609C23.3247 22.7547 23.1963 21.7503 23.0348 20.7548C22.8675 19.7602 22.6341 18.7772 22.3404 17.8128C22.0476 16.8484 21.6945 15.9024 21.2744 14.9867C20.4408 13.1551 19.3495 11.4336 17.9888 9.95529C17.305 9.22053 16.56 8.54222 15.7459 7.95733C14.9308 7.37439 14.0574 6.87515 13.1353 6.48685C11.2902 5.71511 9.26031 5.39493 7.27127 5.58276C5.28708 5.77156 3.40016 6.31217 1.78849 7.48486C2.66095 9.68134 4.1987 11.5309 6.13133 12.8865C6.61668 13.2233 7.12537 13.5249 7.65254 13.7897C8.18068 14.0514 8.72925 14.2743 9.29144 14.4543C10.4158 14.8134 11.5927 15.0052 12.7715 15.0139C13.361 15.0188 13.9504 14.9769 14.532 14.8884L14.7499 14.8553L14.9668 14.8115L15.3996 14.722C15.6836 14.6441 15.9715 14.5799 16.2497 14.4816C16.5318 14.3969 16.8051 14.286 17.0803 14.1809C17.2165 14.1254 17.3498 14.0621 17.485 14.0028C17.5521 13.9726 17.6202 13.9444 17.6863 13.9113L17.8837 13.8111C18.0141 13.7429 18.1493 13.6816 18.2767 13.6067L18.6619 13.3887C18.7893 13.3138 18.9128 13.233 19.0392 13.1551C19.1657 13.0792 19.2882 12.9955 19.4098 12.9118C19.902 12.5829 20.3718 12.2199 20.8279 11.8404C21.286 11.4628 21.7276 11.0618 22.1604 10.6521C23.028 9.83364 23.8548 8.9675 24.699 8.11402C25.5423 7.25956 26.4002 6.41191 27.3183 5.62558C27.7755 5.23046 28.254 4.85773 28.7452 4.50252C29.2364 4.14731 29.7548 3.82713 30.2839 3.5303C31.347 2.94542 32.4733 2.47829 33.6356 2.13183C34.7999 1.79316 35.9982 1.56836 37.2081 1.48564C39.6261 1.32409 42.0782 1.64719 44.36 2.46856C46.6408 3.28701 48.7466 4.58232 50.5129 6.24063L50.6033 6.3253L50.5567 6.43819C50.3057 7.0367 50.0275 7.62353 49.7173 8.19382C49.4002 8.76022 49.0588 9.31201 48.6843 9.8424C48.305 10.3689 47.9033 10.8788 47.4724 11.3625C47.0377 11.8433 46.5834 12.3065 46.102 12.7406C44.1771 14.4777 41.8778 15.7895 39.4121 16.572C36.9465 17.3544 34.3165 17.6152 31.7487 17.3136C29.181 17.0187 26.6832 16.1457 24.4899 14.7842L24.3839 14.719L24.4782 14.6392C25.5598 13.7186 26.549 12.6919 27.5557 11.6808C28.5633 10.6735 29.5924 9.67209 30.7576 8.83807C31.917 7.99918 33.2164 7.35882 34.5791 6.93257C35.2609 6.72139 35.9583 6.55789 36.6635 6.45376C37.3677 6.3506 38.0816 6.3 38.7936 6.30194Z" stroke="white" stroke-width="1.05682" mask="url(#path-1-outside-1_300_907)"/>
</svg>
