<svg width="27" height="35" viewBox="0 0 27 35" fill="none" xmlns="http://www.w3.org/2000/svg">
<g clip-path="url(#clip0_300_334)">
<path d="M12.6589 34.6339L0.32087 21.4806C0.114901 21.2611 0 20.9696 0 20.6663C0 20.3631 0.114901 20.0716 0.32087 19.8521L0.334812 19.8379C0.434662 19.7312 0.55485 19.6461 0.688066 19.5881C0.821282 19.53 0.964739 19.5 1.10971 19.5C1.25469 19.5 1.39814 19.53 1.53136 19.5881C1.66458 19.6461 1.78476 19.7312 1.88461 19.8379L13.5023 32.2242L25.1154 19.8379C25.2152 19.7312 25.3354 19.6461 25.4686 19.5881C25.6019 19.53 25.7453 19.5 25.8903 19.5C26.0353 19.5 26.1787 19.53 26.3119 19.5881C26.4451 19.6461 26.5653 19.7312 26.6652 19.8379L26.6791 19.8521C26.8851 20.0716 27 20.3631 27 20.6663C27 20.9696 26.8851 21.2611 26.6791 21.4806L14.3411 34.6339C14.2326 34.7496 14.1021 34.8417 13.9575 34.9046C13.813 34.9676 13.6573 35 13.5 35C13.3427 35 13.187 34.9676 13.0425 34.9046C12.8979 34.8417 12.7674 34.7496 12.6589 34.6339Z" fill="white"/>
<path d="M12.6589 15.1339L0.32087 1.98061C0.114901 1.76114 0 1.46956 0 1.16634C0 0.86313 0.114901 0.571551 0.32087 0.352082L0.334812 0.337919C0.434662 0.231156 0.55485 0.146144 0.688066 0.0880508C0.821282 0.0299578 0.964739 9.53674e-07 1.10971 0C1.25469 9.53674e-07 1.39814 0.0299578 1.53136 0.0880508C1.66458 0.146144 1.78476 0.231156 1.88461 0.337919L13.5023 12.7242L25.1154 0.337919C25.2152 0.231156 25.3354 0.146144 25.4686 0.0880508C25.6019 0.0299578 25.7453 9.53674e-07 25.8903 0C26.0353 9.53674e-07 26.1787 0.0299578 26.3119 0.0880508C26.4451 0.146144 26.5653 0.231156 26.6652 0.337919L26.6791 0.352082C26.8851 0.571551 27 0.86313 27 1.16634C27 1.46956 26.8851 1.76114 26.6791 1.98061L14.3411 15.1339C14.2326 15.2496 14.1021 15.3417 13.9575 15.4046C13.813 15.4676 13.6573 15.5 13.5 15.5C13.3427 15.5 13.187 15.4676 13.0425 15.4046C12.8979 15.3417 12.7674 15.2496 12.6589 15.1339Z" fill="white"/>
</g>
<defs>
<clipPath id="clip0_300_334">
<rect width="27" height="35" fill="white"/>
</clipPath>
</defs>
</svg>
