<svg width="112" height="16" viewBox="0 0 112 16" fill="none" xmlns="http://www.w3.org/2000/svg">
<path d="M2.90404 7.31113H10.2123V9.60666H2.90404V7.31113ZM3.13439 15.1994H0.412109V0.591497H11.1128V2.86616H3.13439V15.1994Z" fill="#062010"/>
<path d="M20.0359 15.1994V12.9456L19.8893 12.4656V8.5215C19.8893 7.75633 19.659 7.16506 19.1983 6.74769C18.7376 6.31641 18.0396 6.10077 17.1042 6.10077C16.476 6.10077 15.8548 6.19815 15.2405 6.39292C14.6402 6.58769 14.1307 6.85898 13.7118 7.20679L12.6858 5.30776C13.286 4.84866 13.998 4.50781 14.8217 4.28521C15.6593 4.0487 16.5249 3.93045 17.4183 3.93045C19.0377 3.93045 20.2872 4.31999 21.1667 5.09908C22.0602 5.86426 22.5069 7.05376 22.5069 8.66758V15.1994H20.0359ZM16.5179 15.3455C15.6803 15.3455 14.9473 15.2064 14.3191 14.9281C13.6909 14.636 13.2023 14.2395 12.8533 13.7386C12.5182 13.2239 12.3507 12.6465 12.3507 12.0065C12.3507 11.3805 12.4973 10.817 12.7905 10.3162C13.0976 9.81535 13.5932 9.41885 14.2772 9.12669C14.9613 8.83453 15.8687 8.68845 16.9995 8.68845H20.2453V10.4205H17.188C16.2945 10.4205 15.6942 10.5666 15.3871 10.8588C15.08 11.137 14.9264 11.4848 14.9264 11.9022C14.9264 12.3752 15.1149 12.7508 15.4918 13.0291C15.8687 13.3073 16.3922 13.4465 17.0623 13.4465C17.7045 13.4465 18.2769 13.3004 18.7795 13.0082C19.296 12.7161 19.6659 12.2848 19.8893 11.7144L20.3291 13.2795C20.0778 13.9334 19.6241 14.4412 18.9679 14.8029C18.3257 15.1646 17.5091 15.3455 16.5179 15.3455Z" fill="#062010"/>
<path d="M25.8662 15.1994V4.05566H28.3581V7.12332L28.065 6.22598C28.4 5.47471 28.9235 4.90431 29.6355 4.51476C30.3615 4.12522 31.2619 3.93045 32.3369 3.93045V6.41379C32.2252 6.38597 32.1205 6.37205 32.0228 6.37205C31.925 6.35814 31.8273 6.35119 31.7296 6.35119C30.7384 6.35119 29.9496 6.64334 29.3633 7.22766C28.777 7.79806 28.4838 8.65367 28.4838 9.79448V15.1994H25.8662Z" fill="#062010"/>
<path d="M48.6713 3.93045C49.5648 3.93045 50.3536 4.10435 51.0376 4.45216C51.7356 4.79997 52.2801 5.33559 52.671 6.05903C53.0619 6.76855 53.2573 7.68677 53.2573 8.81366V15.1994H50.6398V9.14756C50.6398 8.15978 50.4234 7.42243 49.9906 6.9355C49.5578 6.44857 48.9366 6.20511 48.1269 6.20511C47.5545 6.20511 47.045 6.33032 46.5982 6.58074C46.1654 6.83116 45.8234 7.19984 45.5721 7.68677C45.3348 8.1737 45.2161 8.79279 45.2161 9.54406V15.1994H42.5986V9.14756C42.5986 8.15978 42.3822 7.42243 41.9494 6.9355C41.5166 6.44857 40.8954 6.20511 40.0857 6.20511C39.5133 6.20511 39.0038 6.33032 38.557 6.58074C38.1243 6.83116 37.7822 7.19984 37.5309 7.68677C37.2936 8.1737 37.175 8.79279 37.175 9.54406V15.1994H34.5574V4.05566H37.0493V7.01898L36.6096 6.1425C36.9865 5.41906 37.5309 4.86953 38.2429 4.4939C38.9689 4.11826 39.7925 3.93045 40.7139 3.93045C41.7609 3.93045 42.6684 4.18782 43.4362 4.70258C44.218 5.21733 44.7345 5.99642 44.9858 7.03984L43.9597 6.68508C44.3227 5.85034 44.923 5.18255 45.7606 4.68171C46.5982 4.18087 47.5685 3.93045 48.6713 3.93045Z" fill="#062010"/>
<path d="M63.7011 15.4081C62.5564 15.4081 61.5024 15.2272 60.5391 14.8655C59.5898 14.4899 58.7591 13.9682 58.0472 13.3004C57.3352 12.6187 56.7837 11.8187 56.3929 10.9005C56.002 9.98229 55.8065 8.98061 55.8065 7.89545C55.8065 6.81029 56.002 5.80861 56.3929 4.8904C56.7837 3.97218 57.3352 3.17918 58.0472 2.51139C58.7731 1.82969 59.6177 1.30798 60.581 0.946261C61.5442 0.570629 62.5983 0.382812 63.743 0.382812C64.9855 0.382812 66.1023 0.584541 67.0935 0.987997C68.0986 1.39145 68.9433 1.98273 69.6273 2.76181L67.9102 4.43129C67.3378 3.86089 66.7166 3.44352 66.0465 3.17918C65.3903 2.90094 64.6644 2.76181 63.8686 2.76181C63.1008 2.76181 62.3888 2.88703 61.7327 3.13745C61.0766 3.38787 60.5112 3.74263 60.0365 4.20174C59.5619 4.66084 59.1919 5.20342 58.9267 5.82947C58.6754 6.45553 58.5497 7.14419 58.5497 7.89545C58.5497 8.6328 58.6754 9.31451 58.9267 9.94056C59.1919 10.5666 59.5619 11.1161 60.0365 11.5892C60.5112 12.0483 61.0696 12.403 61.7118 12.6535C62.3539 12.9039 63.0659 13.0291 63.8477 13.0291C64.5736 13.0291 65.2717 12.9178 65.9418 12.6952C66.6258 12.4587 67.275 12.0691 67.8892 11.5266L69.4388 13.5508C68.671 14.1629 67.7776 14.629 66.7585 14.949C65.7533 15.2551 64.7342 15.4081 63.7011 15.4081ZM66.8632 13.196V7.7285H69.4388V13.5508L66.8632 13.196Z" fill="#062010"/>
<path d="M72.778 15.1994V4.05566H75.27V7.12332L74.9768 6.22598C75.3119 5.47471 75.8354 4.90431 76.5474 4.51476C77.2733 4.12522 78.1737 3.93045 79.2487 3.93045V6.41379C79.137 6.38597 79.0323 6.37205 78.9346 6.37205C78.8369 6.35814 78.7391 6.35119 78.6414 6.35119C77.6502 6.35119 76.8615 6.64334 76.2751 7.22766C75.6888 7.79806 75.3956 8.65367 75.3956 9.79448V15.1994H72.778Z" fill="#062010"/>
<path d="M86.3927 15.3455C85.248 15.3455 84.2288 15.102 83.3354 14.6151C82.4419 14.1142 81.7369 13.4325 81.2204 12.57C80.7038 11.7074 80.4456 10.7266 80.4456 9.62753C80.4456 8.51455 80.7038 7.53373 81.2204 6.68508C81.7369 5.82252 82.4419 5.14777 83.3354 4.66084C84.2288 4.17391 85.248 3.93045 86.3927 3.93045C87.5514 3.93045 88.5775 4.17391 89.471 4.66084C90.3784 5.14777 91.0834 5.81556 91.586 6.66421C92.1025 7.51286 92.3608 8.50064 92.3608 9.62753C92.3608 10.7266 92.1025 11.7074 91.586 12.57C91.0834 13.4325 90.3784 14.1142 89.471 14.6151C88.5775 15.102 87.5514 15.3455 86.3927 15.3455ZM86.3927 13.1126C87.0349 13.1126 87.6073 12.9734 88.1098 12.6952C88.6124 12.4169 89.0033 12.0135 89.2825 11.4848C89.5757 10.9562 89.7223 10.3371 89.7223 9.62753C89.7223 8.90409 89.5757 8.285 89.2825 7.77024C89.0033 7.24157 88.6124 6.83812 88.1098 6.55987C87.6073 6.28162 87.0419 6.1425 86.4137 6.1425C85.7715 6.1425 85.1991 6.28162 84.6965 6.55987C84.2079 6.83812 83.817 7.24157 83.5238 7.77024C83.2307 8.285 83.0841 8.90409 83.0841 9.62753C83.0841 10.3371 83.2307 10.9562 83.5238 11.4848C83.817 12.0135 84.2079 12.4169 84.6965 12.6952C85.1991 12.9734 85.7645 13.1126 86.3927 13.1126Z" fill="#062010"/>
<path d="M97.0281 15.1994L92.9237 4.05566H95.3947L98.9127 13.8847H97.7401L101.426 4.05566H103.624L107.205 13.8847H106.053L109.676 4.05566H112.001L107.875 15.1994H105.362L102.096 6.49726H102.871L99.5409 15.1994H97.0281Z" fill="#062010"/>
</svg>
