<svg width="34" height="33" viewBox="0 0 34 33" fill="none" xmlns="http://www.w3.org/2000/svg">
<ellipse cx="16.5571" cy="16.5" rx="16.5571" ry="16.5" fill="url(#paint0_linear_300_52)"/>
<mask id="path-2-outside-1_300_52" maskUnits="userSpaceOnUse" x="2.41992" y="8.28906" width="28" height="21" fill="black">
<rect fill="white" x="2.41992" y="8.28906" width="28" height="21"/>
<path d="M23.389 11.874C23.0082 11.8777 22.6284 11.9093 22.2528 11.9694C21.8773 12.0294 21.5074 12.1211 21.1463 12.2377C20.4248 12.4734 19.7375 12.8168 19.1276 13.2664C18.5141 13.7129 17.9723 14.2485 17.4398 14.7893C16.9084 15.3316 16.378 15.8543 15.7998 16.3541C16.9671 17.0581 18.2855 17.4636 19.6403 17.6102C20.9941 17.761 22.3791 17.6154 23.6731 17.1974C24.9677 16.7799 26.1713 16.0853 27.175 15.1721C28.1786 14.2594 29.0056 13.2332 29.5178 11.9802C28.5916 11.1173 27.4887 10.4444 26.2955 10.0202C25.1022 9.59438 23.8191 9.42863 22.5573 9.51513C21.9256 9.55916 21.3006 9.67778 20.6933 9.85493C20.0871 10.0362 19.5001 10.2802 18.9463 10.5853C18.6715 10.7402 18.4029 10.9059 18.1463 11.0914C17.8902 11.2768 17.6403 11.4711 17.4003 11.6788C16.9188 12.0916 16.4658 12.5397 16.0175 12.9939C15.5686 13.4477 15.1229 13.9082 14.6543 14.3485C14.42 14.5686 14.1806 14.7841 13.9312 14.9887C13.6824 15.1943 13.4257 15.3912 13.1556 15.5704C13.0886 15.616 13.0216 15.6616 12.952 15.703C12.8829 15.7455 12.8148 15.7895 12.7447 15.8299L12.5322 15.9491C12.4621 15.99 12.3878 16.0231 12.3156 16.0604L12.2065 16.1153C12.1701 16.1329 12.1322 16.1485 12.0953 16.1651C12.0205 16.1972 11.9473 16.2319 11.872 16.2624C11.7197 16.3204 11.5686 16.3811 11.4127 16.4272C11.259 16.4805 11.0995 16.5162 10.9426 16.5587L10.7031 16.6074L10.5831 16.6312L10.4621 16.6494C10.14 16.6975 9.81427 16.7198 9.48856 16.7167C8.83764 16.7105 8.1888 16.6038 7.56957 16.4054C7.25996 16.3059 6.95814 16.1832 6.66723 16.0387C6.37683 15.8926 6.09683 15.7263 5.83034 15.5414C4.76747 14.7955 3.92486 13.7409 3.44693 12.5345L3.41992 12.4656L3.47966 12.4226C4.37266 11.7787 5.44644 11.4073 6.53684 11.311C7.6288 11.2146 8.74205 11.397 9.7483 11.8238C10.2512 12.0382 10.727 12.3133 11.1696 12.6324C11.6112 12.953 12.0148 13.3229 12.3836 13.7227C13.1177 14.5272 13.7016 15.4585 14.1463 16.4463C14.3702 16.94 14.5577 17.4497 14.7125 17.9687C14.792 18.2277 14.858 18.4903 14.9208 18.7534C14.979 19.0176 15.0335 19.2833 15.0746 19.5506C15.1561 20.0852 15.2195 20.6213 15.2668 21.159C15.2938 21.4273 15.3115 21.6966 15.3333 21.9655C15.3504 22.2348 15.3712 22.5037 15.3847 22.773C15.4455 23.8499 15.4798 24.9278 15.4907 26.0063C15.5032 27.0842 15.4912 28.1627 15.4497 29.2401C15.4637 28.7014 15.4694 28.1622 15.4694 27.6234C15.4673 27.0847 15.4626 26.5455 15.4507 26.0068C15.4289 24.9294 15.3842 23.8525 15.313 22.7772C15.2969 22.5083 15.2735 22.24 15.2538 21.9712C15.2289 21.7029 15.2091 21.4345 15.1795 21.1667C15.1271 20.6311 15.0585 20.0966 14.9722 19.5667C14.8829 19.0373 14.7582 18.5141 14.6013 18.0008C14.445 17.4875 14.2564 16.984 14.032 16.4966C13.5868 15.5217 13.0039 14.6054 12.2772 13.8186C11.912 13.4275 11.514 13.0665 11.0792 12.7551C10.6439 12.4449 10.1774 12.1791 9.68492 11.9725C8.69946 11.5617 7.61529 11.3913 6.55294 11.4913C5.49319 11.5917 4.48539 11.8795 3.6246 12.5037C4.09058 13.6728 4.91189 14.6572 5.9441 15.3787C6.20333 15.558 6.47502 15.7185 6.75658 15.8594C7.03866 15.9988 7.33165 16.1174 7.63191 16.2132C8.23244 16.4044 8.86102 16.5064 9.49063 16.5111C9.80544 16.5137 10.1202 16.4914 10.4309 16.4442L10.5473 16.4266L10.6631 16.4033L10.8943 16.3557C11.046 16.3142 11.1997 16.28 11.3483 16.2277C11.499 16.1827 11.6449 16.1236 11.792 16.0677C11.8647 16.0381 11.9359 16.0045 12.0081 15.9729C12.0439 15.9568 12.0803 15.9418 12.1156 15.9242L12.2211 15.8708C12.2907 15.8346 12.3629 15.8019 12.4309 15.7621L12.6366 15.646C12.7047 15.6061 12.7707 15.5631 12.8382 15.5217C12.9057 15.4813 12.9712 15.4368 13.0361 15.3922C13.299 15.2171 13.5499 15.0239 13.7935 14.8219C14.0382 14.6209 14.2741 14.4075 14.5052 14.1894C14.9686 13.7538 15.4102 13.2928 15.8611 12.8385C16.3115 12.3837 16.7697 11.9326 17.2601 11.514C17.5042 11.3037 17.7598 11.1054 18.0221 10.9163C18.2845 10.7272 18.5614 10.5568 18.844 10.3988C19.4118 10.0875 20.0133 9.83887 20.6341 9.65447C21.2559 9.47421 21.896 9.35455 22.5422 9.31053C23.8336 9.22454 25.1433 9.39651 26.362 9.83369C27.5802 10.2693 28.7049 10.9588 29.6482 11.8414L29.6966 11.8865L29.6716 11.9466C29.5376 12.2651 29.389 12.5775 29.2233 12.881C29.0539 13.1825 28.8716 13.4762 28.6716 13.7585C28.469 14.0387 28.2545 14.3101 28.0243 14.5676C27.7921 14.8235 27.5495 15.07 27.2924 15.301C26.2643 16.2257 25.0362 16.9239 23.7193 17.3404C22.4024 17.7568 20.9978 17.8956 19.6263 17.7351C18.2549 17.5781 16.9208 17.1135 15.7494 16.3888L15.6928 16.3541L15.7432 16.3116C16.3208 15.8216 16.8491 15.2751 17.3868 14.737C17.925 14.2008 18.4746 13.6678 19.097 13.2239C19.7162 12.7774 20.4102 12.4366 21.138 12.2097C21.5022 12.0973 21.8747 12.0103 22.2513 11.9549C22.6274 11.8999 23.0087 11.873 23.389 11.874Z"/>
</mask>
<path d="M23.389 11.874C23.0082 11.8777 22.6284 11.9093 22.2528 11.9694C21.8773 12.0294 21.5074 12.1211 21.1463 12.2377C20.4248 12.4734 19.7375 12.8168 19.1276 13.2664C18.5141 13.7129 17.9723 14.2485 17.4398 14.7893C16.9084 15.3316 16.378 15.8543 15.7998 16.3541C16.9671 17.0581 18.2855 17.4636 19.6403 17.6102C20.9941 17.761 22.3791 17.6154 23.6731 17.1974C24.9677 16.7799 26.1713 16.0853 27.175 15.1721C28.1786 14.2594 29.0056 13.2332 29.5178 11.9802C28.5916 11.1173 27.4887 10.4444 26.2955 10.0202C25.1022 9.59438 23.8191 9.42863 22.5573 9.51513C21.9256 9.55916 21.3006 9.67778 20.6933 9.85493C20.0871 10.0362 19.5001 10.2802 18.9463 10.5853C18.6715 10.7402 18.4029 10.9059 18.1463 11.0914C17.8902 11.2768 17.6403 11.4711 17.4003 11.6788C16.9188 12.0916 16.4658 12.5397 16.0175 12.9939C15.5686 13.4477 15.1229 13.9082 14.6543 14.3485C14.42 14.5686 14.1806 14.7841 13.9312 14.9887C13.6824 15.1943 13.4257 15.3912 13.1556 15.5704C13.0886 15.616 13.0216 15.6616 12.952 15.703C12.8829 15.7455 12.8148 15.7895 12.7447 15.8299L12.5322 15.9491C12.4621 15.99 12.3878 16.0231 12.3156 16.0604L12.2065 16.1153C12.1701 16.1329 12.1322 16.1485 12.0953 16.1651C12.0205 16.1972 11.9473 16.2319 11.872 16.2624C11.7197 16.3204 11.5686 16.3811 11.4127 16.4272C11.259 16.4805 11.0995 16.5162 10.9426 16.5587L10.7031 16.6074L10.5831 16.6312L10.4621 16.6494C10.14 16.6975 9.81427 16.7198 9.48856 16.7167C8.83764 16.7105 8.1888 16.6038 7.56957 16.4054C7.25996 16.3059 6.95814 16.1832 6.66723 16.0387C6.37683 15.8926 6.09683 15.7263 5.83034 15.5414C4.76747 14.7955 3.92486 13.7409 3.44693 12.5345L3.41992 12.4656L3.47966 12.4226C4.37266 11.7787 5.44644 11.4073 6.53684 11.311C7.6288 11.2146 8.74205 11.397 9.7483 11.8238C10.2512 12.0382 10.727 12.3133 11.1696 12.6324C11.6112 12.953 12.0148 13.3229 12.3836 13.7227C13.1177 14.5272 13.7016 15.4585 14.1463 16.4463C14.3702 16.94 14.5577 17.4497 14.7125 17.9687C14.792 18.2277 14.858 18.4903 14.9208 18.7534C14.979 19.0176 15.0335 19.2833 15.0746 19.5506C15.1561 20.0852 15.2195 20.6213 15.2668 21.159C15.2938 21.4273 15.3115 21.6966 15.3333 21.9655C15.3504 22.2348 15.3712 22.5037 15.3847 22.773C15.4455 23.8499 15.4798 24.9278 15.4907 26.0063C15.5032 27.0842 15.4912 28.1627 15.4497 29.2401C15.4637 28.7014 15.4694 28.1622 15.4694 27.6234C15.4673 27.0847 15.4626 26.5455 15.4507 26.0068C15.4289 24.9294 15.3842 23.8525 15.313 22.7772C15.2969 22.5083 15.2735 22.24 15.2538 21.9712C15.2289 21.7029 15.2091 21.4345 15.1795 21.1667C15.1271 20.6311 15.0585 20.0966 14.9722 19.5667C14.8829 19.0373 14.7582 18.5141 14.6013 18.0008C14.445 17.4875 14.2564 16.984 14.032 16.4966C13.5868 15.5217 13.0039 14.6054 12.2772 13.8186C11.912 13.4275 11.514 13.0665 11.0792 12.7551C10.6439 12.4449 10.1774 12.1791 9.68492 11.9725C8.69946 11.5617 7.61529 11.3913 6.55294 11.4913C5.49319 11.5917 4.48539 11.8795 3.6246 12.5037C4.09058 13.6728 4.91189 14.6572 5.9441 15.3787C6.20333 15.558 6.47502 15.7185 6.75658 15.8594C7.03866 15.9988 7.33165 16.1174 7.63191 16.2132C8.23244 16.4044 8.86102 16.5064 9.49063 16.5111C9.80544 16.5137 10.1202 16.4914 10.4309 16.4442L10.5473 16.4266L10.6631 16.4033L10.8943 16.3557C11.046 16.3142 11.1997 16.28 11.3483 16.2277C11.499 16.1827 11.6449 16.1236 11.792 16.0677C11.8647 16.0381 11.9359 16.0045 12.0081 15.9729C12.0439 15.9568 12.0803 15.9418 12.1156 15.9242L12.2211 15.8708C12.2907 15.8346 12.3629 15.8019 12.4309 15.7621L12.6366 15.646C12.7047 15.6061 12.7707 15.5631 12.8382 15.5217C12.9057 15.4813 12.9712 15.4368 13.0361 15.3922C13.299 15.2171 13.5499 15.0239 13.7935 14.8219C14.0382 14.6209 14.2741 14.4075 14.5052 14.1894C14.9686 13.7538 15.4102 13.2928 15.8611 12.8385C16.3115 12.3837 16.7697 11.9326 17.2601 11.514C17.5042 11.3037 17.7598 11.1054 18.0221 10.9163C18.2845 10.7272 18.5614 10.5568 18.844 10.3988C19.4118 10.0875 20.0133 9.83887 20.6341 9.65447C21.2559 9.47421 21.896 9.35455 22.5422 9.31053C23.8336 9.22454 25.1433 9.39651 26.362 9.83369C27.5802 10.2693 28.7049 10.9588 29.6482 11.8414L29.6966 11.8865L29.6716 11.9466C29.5376 12.2651 29.389 12.5775 29.2233 12.881C29.0539 13.1825 28.8716 13.4762 28.6716 13.7585C28.469 14.0387 28.2545 14.3101 28.0243 14.5676C27.7921 14.8235 27.5495 15.07 27.2924 15.301C26.2643 16.2257 25.0362 16.9239 23.7193 17.3404C22.4024 17.7568 20.9978 17.8956 19.6263 17.7351C18.2549 17.5781 16.9208 17.1135 15.7494 16.3888L15.6928 16.3541L15.7432 16.3116C16.3208 15.8216 16.8491 15.2751 17.3868 14.737C17.925 14.2008 18.4746 13.6678 19.097 13.2239C19.7162 12.7774 20.4102 12.4366 21.138 12.2097C21.5022 12.0973 21.8747 12.0103 22.2513 11.9549C22.6274 11.8999 23.0087 11.873 23.389 11.874Z" fill="white"/>
<path d="M23.389 11.874C23.0082 11.8777 22.6284 11.9093 22.2528 11.9694C21.8773 12.0294 21.5074 12.1211 21.1463 12.2377C20.4248 12.4734 19.7375 12.8168 19.1276 13.2664C18.5141 13.7129 17.9723 14.2485 17.4398 14.7893C16.9084 15.3316 16.378 15.8543 15.7998 16.3541C16.9671 17.0581 18.2855 17.4636 19.6403 17.6102C20.9941 17.761 22.3791 17.6154 23.6731 17.1974C24.9677 16.7799 26.1713 16.0853 27.175 15.1721C28.1786 14.2594 29.0056 13.2332 29.5178 11.9802C28.5916 11.1173 27.4887 10.4444 26.2955 10.0202C25.1022 9.59438 23.8191 9.42863 22.5573 9.51513C21.9256 9.55916 21.3006 9.67778 20.6933 9.85493C20.0871 10.0362 19.5001 10.2802 18.9463 10.5853C18.6715 10.7402 18.4029 10.9059 18.1463 11.0914C17.8902 11.2768 17.6403 11.4711 17.4003 11.6788C16.9188 12.0916 16.4658 12.5397 16.0175 12.9939C15.5686 13.4477 15.1229 13.9082 14.6543 14.3485C14.42 14.5686 14.1806 14.7841 13.9312 14.9887C13.6824 15.1943 13.4257 15.3912 13.1556 15.5704C13.0886 15.616 13.0216 15.6616 12.952 15.703C12.8829 15.7455 12.8148 15.7895 12.7447 15.8299L12.5322 15.9491C12.4621 15.99 12.3878 16.0231 12.3156 16.0604L12.2065 16.1153C12.1701 16.1329 12.1322 16.1485 12.0953 16.1651C12.0205 16.1972 11.9473 16.2319 11.872 16.2624C11.7197 16.3204 11.5686 16.3811 11.4127 16.4272C11.259 16.4805 11.0995 16.5162 10.9426 16.5587L10.7031 16.6074L10.5831 16.6312L10.4621 16.6494C10.14 16.6975 9.81427 16.7198 9.48856 16.7167C8.83764 16.7105 8.1888 16.6038 7.56957 16.4054C7.25996 16.3059 6.95814 16.1832 6.66723 16.0387C6.37683 15.8926 6.09683 15.7263 5.83034 15.5414C4.76747 14.7955 3.92486 13.7409 3.44693 12.5345L3.41992 12.4656L3.47966 12.4226C4.37266 11.7787 5.44644 11.4073 6.53684 11.311C7.6288 11.2146 8.74205 11.397 9.7483 11.8238C10.2512 12.0382 10.727 12.3133 11.1696 12.6324C11.6112 12.953 12.0148 13.3229 12.3836 13.7227C13.1177 14.5272 13.7016 15.4585 14.1463 16.4463C14.3702 16.94 14.5577 17.4497 14.7125 17.9687C14.792 18.2277 14.858 18.4903 14.9208 18.7534C14.979 19.0176 15.0335 19.2833 15.0746 19.5506C15.1561 20.0852 15.2195 20.6213 15.2668 21.159C15.2938 21.4273 15.3115 21.6966 15.3333 21.9655C15.3504 22.2348 15.3712 22.5037 15.3847 22.773C15.4455 23.8499 15.4798 24.9278 15.4907 26.0063C15.5032 27.0842 15.4912 28.1627 15.4497 29.2401C15.4637 28.7014 15.4694 28.1622 15.4694 27.6234C15.4673 27.0847 15.4626 26.5455 15.4507 26.0068C15.4289 24.9294 15.3842 23.8525 15.313 22.7772C15.2969 22.5083 15.2735 22.24 15.2538 21.9712C15.2289 21.7029 15.2091 21.4345 15.1795 21.1667C15.1271 20.6311 15.0585 20.0966 14.9722 19.5667C14.8829 19.0373 14.7582 18.5141 14.6013 18.0008C14.445 17.4875 14.2564 16.984 14.032 16.4966C13.5868 15.5217 13.0039 14.6054 12.2772 13.8186C11.912 13.4275 11.514 13.0665 11.0792 12.7551C10.6439 12.4449 10.1774 12.1791 9.68492 11.9725C8.69946 11.5617 7.61529 11.3913 6.55294 11.4913C5.49319 11.5917 4.48539 11.8795 3.6246 12.5037C4.09058 13.6728 4.91189 14.6572 5.9441 15.3787C6.20333 15.558 6.47502 15.7185 6.75658 15.8594C7.03866 15.9988 7.33165 16.1174 7.63191 16.2132C8.23244 16.4044 8.86102 16.5064 9.49063 16.5111C9.80544 16.5137 10.1202 16.4914 10.4309 16.4442L10.5473 16.4266L10.6631 16.4033L10.8943 16.3557C11.046 16.3142 11.1997 16.28 11.3483 16.2277C11.499 16.1827 11.6449 16.1236 11.792 16.0677C11.8647 16.0381 11.9359 16.0045 12.0081 15.9729C12.0439 15.9568 12.0803 15.9418 12.1156 15.9242L12.2211 15.8708C12.2907 15.8346 12.3629 15.8019 12.4309 15.7621L12.6366 15.646C12.7047 15.6061 12.7707 15.5631 12.8382 15.5217C12.9057 15.4813 12.9712 15.4368 13.0361 15.3922C13.299 15.2171 13.5499 15.0239 13.7935 14.8219C14.0382 14.6209 14.2741 14.4075 14.5052 14.1894C14.9686 13.7538 15.4102 13.2928 15.8611 12.8385C16.3115 12.3837 16.7697 11.9326 17.2601 11.514C17.5042 11.3037 17.7598 11.1054 18.0221 10.9163C18.2845 10.7272 18.5614 10.5568 18.844 10.3988C19.4118 10.0875 20.0133 9.83887 20.6341 9.65447C21.2559 9.47421 21.896 9.35455 22.5422 9.31053C23.8336 9.22454 25.1433 9.39651 26.362 9.83369C27.5802 10.2693 28.7049 10.9588 29.6482 11.8414L29.6966 11.8865L29.6716 11.9466C29.5376 12.2651 29.389 12.5775 29.2233 12.881C29.0539 13.1825 28.8716 13.4762 28.6716 13.7585C28.469 14.0387 28.2545 14.3101 28.0243 14.5676C27.7921 14.8235 27.5495 15.07 27.2924 15.301C26.2643 16.2257 25.0362 16.9239 23.7193 17.3404C22.4024 17.7568 20.9978 17.8956 19.6263 17.7351C18.2549 17.5781 16.9208 17.1135 15.7494 16.3888L15.6928 16.3541L15.7432 16.3116C16.3208 15.8216 16.8491 15.2751 17.3868 14.737C17.925 14.2008 18.4746 13.6678 19.097 13.2239C19.7162 12.7774 20.4102 12.4366 21.138 12.2097C21.5022 12.0973 21.8747 12.0103 22.2513 11.9549C22.6274 11.8999 23.0087 11.873 23.389 11.874Z" stroke="white" stroke-width="0.631319" mask="url(#path-2-outside-1_300_52)"/>
<defs>
<linearGradient id="paint0_linear_300_52" x1="1.91612e-07" y1="6.1875" x2="34.2308" y2="8.61598" gradientUnits="userSpaceOnUse">
<stop stop-color="#30C917"/>
<stop offset="1" stop-color="#279A13"/>
</linearGradient>
</defs>
</svg>
