<svg width="299" height="434" viewBox="0 0 299 434" fill="none" xmlns="http://www.w3.org/2000/svg">
<mask id="path-1-outside-1_300_75" maskUnits="userSpaceOnUse" x="-116.617" y="-32.7887" width="621.33" height="547.065" fill="black">
<rect fill="white" x="-116.617" y="-32.7887" width="621.33" height="547.065"/>
<path d="M118.053 59.6467C125.023 62.2517 131.787 65.3653 138.285 68.9764C144.782 72.5875 150.963 76.7429 156.815 81.2977C168.493 90.4516 178.82 101.363 187.016 113.715C195.299 126.035 201.669 139.519 207.833 153.036C213.967 166.575 219.895 180.266 227.172 193.333L227.806 191.943C201.656 197.137 174.41 196.694 148.543 190.365C122.667 184.119 98.2011 172.205 77.2271 155.874C56.2401 139.55 38.7767 118.723 26.449 95.2009C14.118 71.6879 6.91316 45.4754 5.88539 18.9653L4.7622 20.7511C27.5483 11.0186 52.3072 5.96745 77.0635 6.10168C101.83 6.20728 126.508 11.7049 149.108 21.7102C160.417 26.7324 171.103 33.0845 181.073 40.3977C190.997 47.7803 200.148 56.1901 208.279 65.505C212.291 70.1915 216.116 75.037 219.589 80.1656C223.053 85.2908 226.344 90.5368 229.363 95.9652C235.448 106.785 240.772 118.063 245.968 129.425C251.178 140.78 256.285 152.239 261.947 163.478C264.778 169.097 267.736 174.665 270.948 180.099C274.143 185.548 277.54 190.887 281.304 195.991C282.23 197.278 283.156 198.565 284.157 199.792C285.142 201.036 286.098 202.301 287.116 203.513L290.222 207.125C291.236 208.347 292.379 209.453 293.456 210.622L295.093 212.361C295.643 212.928 296.236 213.468 296.802 214.019C297.961 215.11 299.075 216.237 300.254 217.303C302.662 219.387 305.033 221.512 307.588 223.4C310.055 225.408 312.746 227.13 315.343 228.959L319.417 231.453L321.462 232.692L323.564 233.833C329.158 236.868 334.992 239.449 340.996 241.563C352.994 245.787 365.626 248.145 378.327 248.616C384.68 248.847 391.045 248.596 397.355 247.871C403.667 247.114 409.922 245.916 416.054 244.284C440.567 237.62 463.099 223.797 479.947 204.746L480.904 203.656L480.094 202.466C467.997 184.645 450.757 170.642 431.372 161.598C411.959 152.544 390.29 148.484 368.952 149.644C358.28 150.245 347.7 152.143 337.436 155.074C327.18 158.041 317.292 162.167 307.842 167.08C288.978 177.014 272.023 190.289 257.248 205.533C249.833 213.139 242.979 221.284 236.664 229.819C233.472 234.063 230.503 238.464 227.589 242.895C224.753 247.377 221.974 251.911 219.432 256.564C214.358 265.874 209.608 275.333 205.144 284.929C202.853 289.694 200.727 294.541 198.528 299.351C196.411 304.202 194.231 309.019 192.182 313.893C183.862 333.338 176.022 352.978 168.609 372.784C161.17 392.569 154.176 412.527 147.733 432.664C151.078 422.641 154.58 412.663 158.183 402.734C161.825 392.818 165.517 382.91 169.34 373.06C176.947 353.346 184.971 333.794 193.471 314.448C195.565 309.6 197.789 304.81 199.95 299.986C202.202 295.207 204.36 290.392 206.695 285.654C211.241 276.131 216.076 266.735 221.204 257.542C226.387 248.38 232.176 239.568 238.491 231.152C244.797 222.732 251.628 214.709 259.011 207.221C273.709 192.219 290.545 179.215 309.157 169.556C318.481 164.782 328.206 160.779 338.275 157.939C348.347 155.122 358.693 153.334 369.121 152.807C389.971 151.804 411.025 155.89 429.871 164.813C448.665 173.73 465.37 187.301 477.007 204.544L477.154 202.263C460.775 220.706 438.839 234.108 415.052 240.527C409.092 242.103 403.027 243.252 396.913 243.972C390.799 244.66 384.624 244.893 378.468 244.658C366.158 244.179 353.93 241.87 342.333 237.759C336.533 235.708 330.899 233.199 325.508 230.26L323.489 229.159L321.517 227.958L317.589 225.538C315.08 223.763 312.484 222.108 310.105 220.154C307.639 218.319 305.353 216.257 303.026 214.246C301.888 213.217 300.806 212.122 299.691 211.058C299.14 210.524 298.572 210.004 298.041 209.444L296.461 207.758C295.425 206.626 294.317 205.543 293.333 204.354L290.331 200.844C289.347 199.655 288.423 198.423 287.46 197.209C286.489 196.014 285.585 194.757 284.69 193.503C281.033 188.524 277.716 183.29 274.592 177.942C271.442 172.607 268.537 167.101 265.749 161.541C260.151 150.422 255.124 138.981 249.88 127.602C244.648 116.217 239.25 104.847 233.041 93.8639C229.963 88.3601 226.595 82.9997 223.041 77.7661C219.487 72.5325 215.54 67.5457 211.406 62.7499C203.059 53.227 193.672 44.6344 183.502 37.0974C173.285 29.63 162.33 23.1584 150.753 18.0393C127.606 7.84611 102.4 2.28648 77.0894 2.22127C51.7988 2.13087 26.5282 7.34215 3.29563 17.3232L2.10674 17.8318L2.16292 19.1056C2.49407 25.8708 3.13396 32.6184 4.14768 39.3179C5.24206 46.0036 6.62701 52.6325 8.41258 59.1692C10.2597 65.6849 12.3852 72.118 14.8905 78.3972C17.4444 84.6616 20.2515 90.8234 23.4297 96.7957C36.1296 120.691 54.0174 141.747 75.4216 158.201C96.8259 174.656 121.7 186.578 147.966 192.759C174.207 199.008 201.82 199.336 228.185 193.787L229.457 193.525L228.815 192.406C221.482 179.523 215.433 165.929 209.156 152.425C202.856 138.956 196.325 125.468 187.863 113.137C179.475 100.779 169.006 89.8706 157.155 80.8375C151.217 76.3383 144.958 72.2515 138.41 68.7195C131.869 65.2004 125.045 62.1623 118.053 59.6467Z"/>
</mask>
<path d="M118.053 59.6467C125.023 62.2517 131.787 65.3653 138.285 68.9764C144.782 72.5875 150.963 76.7429 156.815 81.2977C168.493 90.4516 178.82 101.363 187.016 113.715C195.299 126.035 201.669 139.519 207.833 153.036C213.967 166.575 219.895 180.266 227.172 193.333L227.806 191.943C201.656 197.137 174.41 196.694 148.543 190.365C122.667 184.119 98.2011 172.205 77.2271 155.874C56.2401 139.55 38.7767 118.723 26.449 95.2009C14.118 71.6879 6.91316 45.4754 5.88539 18.9653L4.7622 20.7511C27.5483 11.0186 52.3072 5.96745 77.0635 6.10168C101.83 6.20728 126.508 11.7049 149.108 21.7102C160.417 26.7324 171.103 33.0845 181.073 40.3977C190.997 47.7803 200.148 56.1901 208.279 65.505C212.291 70.1915 216.116 75.037 219.589 80.1656C223.053 85.2908 226.344 90.5368 229.363 95.9652C235.448 106.785 240.772 118.063 245.968 129.425C251.178 140.78 256.285 152.239 261.947 163.478C264.778 169.097 267.736 174.665 270.948 180.099C274.143 185.548 277.54 190.887 281.304 195.991C282.23 197.278 283.156 198.565 284.157 199.792C285.142 201.036 286.098 202.301 287.116 203.513L290.222 207.125C291.236 208.347 292.379 209.453 293.456 210.622L295.093 212.361C295.643 212.928 296.236 213.468 296.802 214.019C297.961 215.11 299.075 216.237 300.254 217.303C302.662 219.387 305.033 221.512 307.588 223.4C310.055 225.408 312.746 227.13 315.343 228.959L319.417 231.453L321.462 232.692L323.564 233.833C329.158 236.868 334.992 239.449 340.996 241.563C352.994 245.787 365.626 248.145 378.327 248.616C384.68 248.847 391.045 248.596 397.355 247.871C403.667 247.114 409.922 245.916 416.054 244.284C440.567 237.62 463.099 223.797 479.947 204.746L480.904 203.656L480.094 202.466C467.997 184.645 450.757 170.642 431.372 161.598C411.959 152.544 390.29 148.484 368.952 149.644C358.28 150.245 347.7 152.143 337.436 155.074C327.18 158.041 317.292 162.167 307.842 167.08C288.978 177.014 272.023 190.289 257.248 205.533C249.833 213.139 242.979 221.284 236.664 229.819C233.472 234.063 230.503 238.464 227.589 242.895C224.753 247.377 221.974 251.911 219.432 256.564C214.358 265.874 209.608 275.333 205.144 284.929C202.853 289.694 200.727 294.541 198.528 299.351C196.411 304.202 194.231 309.019 192.182 313.893C183.862 333.338 176.022 352.978 168.609 372.784C161.17 392.569 154.176 412.527 147.733 432.664C151.078 422.641 154.58 412.663 158.183 402.734C161.825 392.818 165.517 382.91 169.34 373.06C176.947 353.346 184.971 333.794 193.471 314.448C195.565 309.6 197.789 304.81 199.95 299.986C202.202 295.207 204.36 290.392 206.695 285.654C211.241 276.131 216.076 266.735 221.204 257.542C226.387 248.38 232.176 239.568 238.491 231.152C244.797 222.732 251.628 214.709 259.011 207.221C273.709 192.219 290.545 179.215 309.157 169.556C318.481 164.782 328.206 160.779 338.275 157.939C348.347 155.122 358.693 153.334 369.121 152.807C389.971 151.804 411.025 155.89 429.871 164.813C448.665 173.73 465.37 187.301 477.007 204.544L477.154 202.263C460.775 220.706 438.839 234.108 415.052 240.527C409.092 242.103 403.027 243.252 396.913 243.972C390.799 244.66 384.624 244.893 378.468 244.658C366.158 244.179 353.93 241.87 342.333 237.759C336.533 235.708 330.899 233.199 325.508 230.26L323.489 229.159L321.517 227.958L317.589 225.538C315.08 223.763 312.484 222.108 310.105 220.154C307.639 218.319 305.353 216.257 303.026 214.246C301.888 213.217 300.806 212.122 299.691 211.058C299.14 210.524 298.572 210.004 298.041 209.444L296.461 207.758C295.425 206.626 294.317 205.543 293.333 204.354L290.331 200.844C289.347 199.655 288.423 198.423 287.46 197.209C286.489 196.014 285.585 194.757 284.69 193.503C281.033 188.524 277.716 183.29 274.592 177.942C271.442 172.607 268.537 167.101 265.749 161.541C260.151 150.422 255.124 138.981 249.88 127.602C244.648 116.217 239.25 104.847 233.041 93.8639C229.963 88.3601 226.595 82.9997 223.041 77.7661C219.487 72.5325 215.54 67.5457 211.406 62.7499C203.059 53.227 193.672 44.6344 183.502 37.0974C173.285 29.63 162.33 23.1584 150.753 18.0393C127.606 7.84611 102.4 2.28648 77.0894 2.22127C51.7988 2.13087 26.5282 7.34215 3.29563 17.3232L2.10674 17.8318L2.16292 19.1056C2.49407 25.8708 3.13396 32.6184 4.14768 39.3179C5.24206 46.0036 6.62701 52.6325 8.41258 59.1692C10.2597 65.6849 12.3852 72.118 14.8905 78.3972C17.4444 84.6616 20.2515 90.8234 23.4297 96.7957C36.1296 120.691 54.0174 141.747 75.4216 158.201C96.8259 174.656 121.7 186.578 147.966 192.759C174.207 199.008 201.82 199.336 228.185 193.787L229.457 193.525L228.815 192.406C221.482 179.523 215.433 165.929 209.156 152.425C202.856 138.956 196.325 125.468 187.863 113.137C179.475 100.779 169.006 89.8706 157.155 80.8375C151.217 76.3383 144.958 72.2515 138.41 68.7195C131.869 65.2004 125.045 62.1623 118.053 59.6467Z" fill="url(#paint0_linear_300_75)" fill-opacity="0.12"/>
<path d="M118.053 59.6467C125.023 62.2517 131.787 65.3653 138.285 68.9764C144.782 72.5875 150.963 76.7429 156.815 81.2977C168.493 90.4516 178.82 101.363 187.016 113.715C195.299 126.035 201.669 139.519 207.833 153.036C213.967 166.575 219.895 180.266 227.172 193.333L227.806 191.943C201.656 197.137 174.41 196.694 148.543 190.365C122.667 184.119 98.2011 172.205 77.2271 155.874C56.2401 139.55 38.7767 118.723 26.449 95.2009C14.118 71.6879 6.91316 45.4754 5.88539 18.9653L4.7622 20.7511C27.5483 11.0186 52.3072 5.96745 77.0635 6.10168C101.83 6.20728 126.508 11.7049 149.108 21.7102C160.417 26.7324 171.103 33.0845 181.073 40.3977C190.997 47.7803 200.148 56.1901 208.279 65.505C212.291 70.1915 216.116 75.037 219.589 80.1656C223.053 85.2908 226.344 90.5368 229.363 95.9652C235.448 106.785 240.772 118.063 245.968 129.425C251.178 140.78 256.285 152.239 261.947 163.478C264.778 169.097 267.736 174.665 270.948 180.099C274.143 185.548 277.54 190.887 281.304 195.991C282.23 197.278 283.156 198.565 284.157 199.792C285.142 201.036 286.098 202.301 287.116 203.513L290.222 207.125C291.236 208.347 292.379 209.453 293.456 210.622L295.093 212.361C295.643 212.928 296.236 213.468 296.802 214.019C297.961 215.11 299.075 216.237 300.254 217.303C302.662 219.387 305.033 221.512 307.588 223.4C310.055 225.408 312.746 227.13 315.343 228.959L319.417 231.453L321.462 232.692L323.564 233.833C329.158 236.868 334.992 239.449 340.996 241.563C352.994 245.787 365.626 248.145 378.327 248.616C384.68 248.847 391.045 248.596 397.355 247.871C403.667 247.114 409.922 245.916 416.054 244.284C440.567 237.62 463.099 223.797 479.947 204.746L480.904 203.656L480.094 202.466C467.997 184.645 450.757 170.642 431.372 161.598C411.959 152.544 390.29 148.484 368.952 149.644C358.28 150.245 347.7 152.143 337.436 155.074C327.18 158.041 317.292 162.167 307.842 167.08C288.978 177.014 272.023 190.289 257.248 205.533C249.833 213.139 242.979 221.284 236.664 229.819C233.472 234.063 230.503 238.464 227.589 242.895C224.753 247.377 221.974 251.911 219.432 256.564C214.358 265.874 209.608 275.333 205.144 284.929C202.853 289.694 200.727 294.541 198.528 299.351C196.411 304.202 194.231 309.019 192.182 313.893C183.862 333.338 176.022 352.978 168.609 372.784C161.17 392.569 154.176 412.527 147.733 432.664C151.078 422.641 154.58 412.663 158.183 402.734C161.825 392.818 165.517 382.91 169.34 373.06C176.947 353.346 184.971 333.794 193.471 314.448C195.565 309.6 197.789 304.81 199.95 299.986C202.202 295.207 204.36 290.392 206.695 285.654C211.241 276.131 216.076 266.735 221.204 257.542C226.387 248.38 232.176 239.568 238.491 231.152C244.797 222.732 251.628 214.709 259.011 207.221C273.709 192.219 290.545 179.215 309.157 169.556C318.481 164.782 328.206 160.779 338.275 157.939C348.347 155.122 358.693 153.334 369.121 152.807C389.971 151.804 411.025 155.89 429.871 164.813C448.665 173.73 465.37 187.301 477.007 204.544L477.154 202.263C460.775 220.706 438.839 234.108 415.052 240.527C409.092 242.103 403.027 243.252 396.913 243.972C390.799 244.66 384.624 244.893 378.468 244.658C366.158 244.179 353.93 241.87 342.333 237.759C336.533 235.708 330.899 233.199 325.508 230.26L323.489 229.159L321.517 227.958L317.589 225.538C315.08 223.763 312.484 222.108 310.105 220.154C307.639 218.319 305.353 216.257 303.026 214.246C301.888 213.217 300.806 212.122 299.691 211.058C299.14 210.524 298.572 210.004 298.041 209.444L296.461 207.758C295.425 206.626 294.317 205.543 293.333 204.354L290.331 200.844C289.347 199.655 288.423 198.423 287.46 197.209C286.489 196.014 285.585 194.757 284.69 193.503C281.033 188.524 277.716 183.29 274.592 177.942C271.442 172.607 268.537 167.101 265.749 161.541C260.151 150.422 255.124 138.981 249.88 127.602C244.648 116.217 239.25 104.847 233.041 93.8639C229.963 88.3601 226.595 82.9997 223.041 77.7661C219.487 72.5325 215.54 67.5457 211.406 62.7499C203.059 53.227 193.672 44.6344 183.502 37.0974C173.285 29.63 162.33 23.1584 150.753 18.0393C127.606 7.84611 102.4 2.28648 77.0894 2.22127C51.7988 2.13087 26.5282 7.34215 3.29563 17.3232L2.10674 17.8318L2.16292 19.1056C2.49407 25.8708 3.13396 32.6184 4.14768 39.3179C5.24206 46.0036 6.62701 52.6325 8.41258 59.1692C10.2597 65.6849 12.3852 72.118 14.8905 78.3972C17.4444 84.6616 20.2515 90.8234 23.4297 96.7957C36.1296 120.691 54.0174 141.747 75.4216 158.201C96.8259 174.656 121.7 186.578 147.966 192.759C174.207 199.008 201.82 199.336 228.185 193.787L229.457 193.525L228.815 192.406C221.482 179.523 215.433 165.929 209.156 152.425C202.856 138.956 196.325 125.468 187.863 113.137C179.475 100.779 169.006 89.8706 157.155 80.8375C151.217 76.3383 144.958 72.2515 138.41 68.7195C131.869 65.2004 125.045 62.1623 118.053 59.6467Z" stroke="url(#paint1_linear_300_75)" stroke-opacity="0.12" stroke-width="2.92571" mask="url(#path-1-outside-1_300_75)"/>
<defs>
<linearGradient id="paint0_linear_300_75" x1="477.129" y1="214.057" x2="-36.7895" y2="79.7787" gradientUnits="userSpaceOnUse">
<stop stop-color="#0B3F01"/>
<stop offset="1" stop-color="#73E75F"/>
</linearGradient>
<linearGradient id="paint1_linear_300_75" x1="477.129" y1="214.057" x2="-36.7895" y2="79.7787" gradientUnits="userSpaceOnUse">
<stop stop-color="#0B3F01"/>
<stop offset="1" stop-color="#73E75F"/>
</linearGradient>
</defs>
</svg>
